<?xml version="1.0" encoding="UTF-8"?>
<svg width="1e3" height="1e3" version="1.1" viewBox="0 0 264.58 264.58" xmlns="http://www.w3.org/2000/svg">
 <style/>
 <g transform="matrix(.88574 0 0 .88574 -156.31 -88.803)">
  <g fill="#fd0000" stroke="#500" stroke-linecap="round" stroke-linejoin="round" stroke-width="1.7923">
   <path d="m190.12 228.86 78.494 33.606 190.69-55.185-80.018-33.217z"/>
   <path d="m269.12 331.3v-69.17l190.19-54.841 1.6366 69.582z"/>
   <path d="m269.12 331.3v-69.17l-78.997-33.262m78.997 33.262-78.997-33.262 0.75595 70.871 78.241 31.561"/>
  </g>
  <g>
   <path d="m254.98 233.73c2.555-3.4856 12.296-4.6923 19.11-4.41 13.796 0.52098 18.216 2.6753 17.84 6.5427-0.25706 1.8899-4.7335 4.7322-19.243 5.284-12.397 0.17652-19.337-4.0606-17.707-7.4167z" fill="#e60000"/>
   <path d="m254.54 235.26c-0.16234-1.7295-1.406 12.475 0.50096 14.032 14.82 7.8486 32.682 3.4284 36.95-0.26727 1.1723-1.3362 0.15614-8.6759 0.0668-13.23-2.1408 4.5826-10.927 4.3569-18.976 5.479-16.343-0.39511-17.86-6.1397-18.442-7.0136z" fill="#500"/>
  </g>
  <g transform="translate(48.196 -14.172)">
   <path d="m254.98 233.73c2.555-3.4856 12.296-4.6923 19.11-4.41 13.796 0.52098 18.216 2.6753 17.84 6.5427-0.25706 1.8899-4.7335 4.7322-19.243 5.284-12.397 0.17652-19.337-4.0606-17.707-7.4167z" fill="#e60000"/>
   <path d="m254.54 235.26c-0.16234-1.7295-1.406 12.475 0.50096 14.032 14.82 7.8486 32.682 3.4284 36.95-0.26727 1.1723-1.3362 0.15614-8.6759 0.0668-13.23-2.1408 4.5826-10.927 4.3569-18.976 5.479-16.343-0.39511-17.86-6.1397-18.442-7.0136z" fill="#500"/>
  </g>
  <g transform="translate(96.199 -27.59)">
   <path d="m254.98 233.73c2.555-3.4856 12.296-4.6923 19.11-4.41 13.796 0.52098 18.216 2.6753 17.84 6.5427-0.25706 1.8899-4.7335 4.7322-19.243 5.284-12.397 0.17652-19.337-4.0606-17.707-7.4167z" fill="#e60000"/>
   <path d="m254.54 235.26c-0.16234-1.7295-1.406 12.475 0.50096 14.032 14.82 7.8486 32.682 3.4284 36.95-0.26727 1.1723-1.3362 0.15614-8.6759 0.0668-13.23-2.1408 4.5826-10.927 4.3569-18.976 5.479-16.343-0.39511-17.86-6.1397-18.442-7.0136z" fill="#500"/>
  </g>
  <g transform="translate(142.27 -41.084)">
   <path d="m254.98 233.73c2.555-3.4856 12.296-4.6923 19.11-4.41 13.796 0.52098 18.216 2.6753 17.84 6.5427-0.25706 1.8899-4.7335 4.7322-19.243 5.284-12.397 0.17652-19.337-4.0606-17.707-7.4167z" fill="#e60000"/>
   <path d="m254.54 235.26c-0.16234-1.7295-1.406 12.475 0.50096 14.032 14.82 7.8486 32.682 3.4284 36.95-0.26727 1.1723-1.3362 0.15614-8.6759 0.0668-13.23-2.1408 4.5826-10.927 4.3569-18.976 5.479-16.343-0.39511-17.86-6.1397-18.442-7.0136z" fill="#500"/>
  </g>
  <g transform="translate(-39.68 -16.459)">
   <path d="m254.98 233.73c2.555-3.4856 12.296-4.6923 19.11-4.41 13.796 0.52098 18.216 2.6753 17.84 6.5427-0.25706 1.8899-4.7335 4.7322-19.243 5.284-12.397 0.17652-19.337-4.0606-17.707-7.4167z" fill="#e60000"/>
   <path d="m254.54 235.26c-0.16234-1.7295-1.406 12.475 0.50096 14.032 14.82 7.8486 32.682 3.4284 36.95-0.26727 1.1723-1.3362 0.15614-8.6759 0.0668-13.23-2.1408 4.5826-10.927 4.3569-18.976 5.479-16.343-0.39511-17.86-6.1397-18.442-7.0136z" fill="#500"/>
  </g>
  <g transform="translate(8.0927 -30.5)">
   <path d="m254.98 233.73c2.555-3.4856 12.296-4.6923 19.11-4.41 13.796 0.52098 18.216 2.6753 17.84 6.5427-0.25706 1.8899-4.7335 4.7322-19.243 5.284-12.397 0.17652-19.337-4.0606-17.707-7.4167z" fill="#e60000"/>
   <path d="m254.54 235.26c-0.16234-1.7295-1.406 12.475 0.50096 14.032 14.82 7.8486 32.682 3.4284 36.95-0.26727 1.1723-1.3362 0.15614-8.6759 0.0668-13.23-2.1408 4.5826-10.927 4.3569-18.976 5.479-16.343-0.39511-17.86-6.1397-18.442-7.0136z" fill="#500"/>
  </g>
  <g transform="translate(56.247 -44.259)">
   <path d="m254.98 233.73c2.555-3.4856 12.296-4.6923 19.11-4.41 13.796 0.52098 18.216 2.6753 17.84 6.5427-0.25706 1.8899-4.7335 4.7322-19.243 5.284-12.397 0.17652-19.337-4.0606-17.707-7.4167z" fill="#e60000"/>
   <path d="m254.54 235.26c-0.16234-1.7295-1.406 12.475 0.50096 14.032 14.82 7.8486 32.682 3.4284 36.95-0.26727 1.1723-1.3362 0.15614-8.6759 0.0668-13.23-2.1408 4.5826-10.927 4.3569-18.976 5.479-16.343-0.39511-17.86-6.1397-18.442-7.0136z" fill="#500"/>
  </g>
  <g transform="translate(104.21 -57.677)">
   <path d="m254.98 233.73c2.555-3.4856 12.296-4.6923 19.11-4.41 13.796 0.52098 18.216 2.6753 17.84 6.5427-0.25706 1.8899-4.7335 4.7322-19.243 5.284-12.397 0.17652-19.337-4.0606-17.707-7.4167z" fill="#e60000"/>
   <path d="m254.54 235.26c-0.16234-1.7295-1.406 12.475 0.50096 14.032 14.82 7.8486 32.682 3.4284 36.95-0.26727 1.1723-1.3362 0.15614-8.6759 0.0668-13.23-2.1408 4.5826-10.927 4.3569-18.976 5.479-16.343-0.39511-17.86-6.1397-18.442-7.0136z" fill="#500"/>
  </g>
 </g>
</svg>
