<?xml version="1.0" encoding="utf-8"?>
<!-- Fidget Spinner icon by Arthur Shlain from Usefulicons.com -->
<svg xmlns="http://www.w3.org/2000/svg" xmlns:xlink="http://www.w3.org/1999/xlink" xml:space="preserve" version="1.1" x="0px" y="0px" viewBox="0 0 100 100" width="400px" height="400px"><path d="M79.151,49.51C76.784,48.144,74.201,47.509,71.651,47.512L71.651,47.512C68.192,47.509,64.828,45.721,62.974,42.51C61.12,39.299,61.254,35.492,62.981,32.495C64.257,30.288,65,27.733,65,25C65,16.716,58.284,10,50,10S35,16.716,35,25C35,27.733,35.743,30.288,37.02,32.494C38.747,35.491,38.881,39.298,37.027,42.509C35.173,45.72,31.809,47.507,28.35,47.511L28.35,47.511C25.8,47.508,23.217,48.143,20.85,49.509C13.676,53.651,11.217,62.825,15.36,69.999C19.502,77.173,28.676,79.632,35.85,75.489C38.217,74.122,40.058,72.202,41.33,69.993L41.33,69.993C43.063,67,46.292,64.981,50,64.981C53.708,64.981,56.938,67,58.67,69.994C59.943,72.203,61.784,74.124,64.15,75.49C71.324,79.632,80.498,77.174,84.64,70C88.783,62.826,86.325,53.652,79.151,49.51ZM33.349,71.16C28.566,73.921,22.45,72.283,19.689,67.5C16.928,62.717,18.566,56.601,23.349,53.84S34.248,52.717,37.009,57.5C39.771,62.283,38.132,68.399,33.349,71.16ZM50,60C44.477,60,40,55.523,40,50C40,44.477,44.477,40,50,40S60,44.477,60,50C60,55.523,55.523,60,50,60ZM50,35C44.477,35,40,30.523,40,25C40,19.477,44.477,15,50,15S60,19.477,60,25C60,30.523,55.523,35,50,35ZM80.311,67.5C77.55,72.283,71.434,73.922,66.651,71.16C61.868,68.399,60.229,62.283,62.991,57.5C65.752,52.717,71.868,51.078,76.651,53.84S83.072,62.717,80.311,67.5Z"></path><path d="M45,25C45,22.238,47.238,20,50,20C52.762,20,55,22.238,55,25C55,27.762,52.762,30,50,30C47.238,30,45,27.762,45,25Z"></path><path d="M45,50C45,47.238,47.238,45,50,45C52.762,45,55,47.238,55,50C55,52.762,52.762,55,50,55C47.238,55,45,52.762,45,50Z"></path><path d="M23.35,62.5C23.35,59.738,25.587,57.501,28.349,57.501C31.111,57.501,33.348,59.738,33.348,62.5C33.348,65.262,31.111,67.499,28.349,67.499C25.587,67.499,23.35,65.262,23.35,62.5Z"></path><path d="M66.652,62.5C66.652,59.738,68.889,57.501,71.651,57.501C74.413,57.501,76.65,59.738,76.65,62.5C76.65,65.262,74.413,67.499,71.651,67.499C68.889,67.499,66.652,65.262,66.652,62.5Z"></path></svg>